# xmcd CD database file
#
# Track frame offsets:
#	150
#	17705
#	44981
#	59587
#	68624
#	85118
#	102545
#	124184
#	135171
#	153385
#	169187
#	185110
#
# Disc length: 2650 seconds
#
# Revision: 0
# Processed by: cddbd v1.5.1PL0 Copyright (c) Steve Scherf et al.
# Submitted via: CDex 1.51
#
DISCID=a90a580c
DTITLE=nobody - and everything else...
DYEAR=2005
DGENRE=Trip-Hop
TTITLE0=the coast is clear (for fireworks)
TTITLE1=what is the light?
TTITLE2=spin the bright sun rose
TTITLE3=go go interlude go
TTITLE4=poor angular fellow
TTITLE5=tilijem's forrest
TTITLE6=you can know her
TTITLE7=jose de la rues!!!
TTITLE8=con un relampago
TTITLE9=wake up and smell the millennium
TTITLE10=tori oshi
TTITLE11=siesta con susana
EXTD=YEAR: 2005
EXTT0=
EXTT1=
EXTT2=
EXTT3=
EXTT4=
EXTT5=
EXTT6=
EXTT7=
EXTT8=
EXTT9=
EXTT10=
EXTT11=
PLAYORDER=
